<svg id="svg" version="1.1" xmlns="http://www.w3.org/2000/svg" xmlns:xlink="http://www.w3.org/1999/xlink" width="400" height="500" viewBox="0, 0, 400,500"><g id="svgg"><path id="path0" d="M184.333 20.550 C 183.142 20.808,181.942 21.067,181.667 21.125 C 179.804 21.518,179.000 21.783,179.000 22.005 C 179.000 22.145,178.475 22.358,177.833 22.478 C 177.192 22.598,176.667 22.865,176.667 23.071 C 176.667 23.276,176.573 23.351,176.459 23.237 C 176.345 23.122,175.745 23.415,175.126 23.887 C 174.506 24.359,174.000 24.647,174.000 24.526 C 174.000 24.405,173.589 24.687,173.087 25.153 C 172.584 25.619,172.054 26.000,171.909 26.000 C 171.763 26.000,171.134 26.510,170.511 27.133 C 169.888 27.757,169.313 28.202,169.233 28.122 C 169.154 28.043,168.513 28.733,167.809 29.655 C 167.105 30.578,166.402 31.333,166.245 31.333 C 166.089 31.333,166.039 31.460,166.135 31.616 C 166.231 31.771,165.847 32.371,165.282 32.949 C 164.717 33.527,164.373 34.000,164.519 34.000 C 164.664 34.000,164.474 34.337,164.096 34.750 C 163.719 35.162,163.297 35.875,163.160 36.333 C 163.023 36.792,162.777 37.253,162.614 37.358 C 162.451 37.463,162.249 37.905,162.166 38.339 C 161.862 39.918,161.574 39.980,154.497 40.006 C 146.491 40.036,139.002 41.258,137.999 42.699 C 137.907 42.831,137.157 43.209,136.332 43.537 C 135.508 43.866,134.543 44.405,134.187 44.734 C 133.832 45.064,133.344 45.333,133.104 45.333 C 132.863 45.333,132.666 45.446,132.664 45.583 C 132.663 45.721,132.107 46.208,131.429 46.667 C 130.199 47.498,127.000 50.553,127.000 50.897 C 127.000 50.997,126.587 51.565,126.083 52.158 C 123.774 54.879,122.390 57.193,122.100 58.819 C 121.893 59.974,121.541 59.989,94.667 60.020 C 66.097 60.053,67.366 60.017,66.108 60.841 C 65.637 61.150,65.353 61.239,65.476 61.038 C 65.617 60.811,65.507 60.749,65.184 60.873 C 64.899 60.982,64.667 61.205,64.667 61.369 C 64.667 61.533,64.502 61.667,64.300 61.667 C 63.823 61.667,61.667 63.823,61.667 64.300 C 61.667 64.502,61.533 64.667,61.369 64.667 C 61.205 64.667,60.982 64.899,60.873 65.184 C 60.759 65.481,60.815 65.614,61.004 65.497 C 61.186 65.385,61.035 65.802,60.668 66.423 C 60.004 67.549,60.002 68.082,60.090 220.026 C 60.180 374.731,60.182 374.894,61.316 375.272 C 61.509 375.336,61.667 375.515,61.667 375.669 C 61.667 375.977,63.719 378.144,64.024 378.158 C 64.129 378.163,64.466 378.418,64.774 378.726 C 65.081 379.034,66.121 379.454,67.083 379.660 C 69.746 380.231,333.039 379.993,333.729 379.420 C 334.004 379.192,334.327 379.104,334.447 379.225 C 334.568 379.346,334.667 379.261,334.667 379.036 C 334.667 378.811,334.795 378.706,334.951 378.803 C 335.280 379.006,338.333 376.180,338.333 375.672 C 338.333 375.486,338.492 375.333,338.686 375.333 C 338.880 375.333,338.947 375.183,338.833 375.000 C 338.720 374.817,338.811 374.667,339.036 374.667 C 339.261 374.667,339.346 374.568,339.225 374.447 C 339.104 374.327,339.192 374.004,339.420 373.729 C 339.999 373.031,340.230 69.745,339.653 67.053 C 339.443 66.073,338.986 64.986,338.636 64.636 C 338.286 64.286,338.088 64.000,338.195 64.000 C 338.303 64.000,337.850 63.475,337.189 62.833 C 336.528 62.192,335.841 61.667,335.661 61.667 C 335.481 61.667,335.333 61.531,335.333 61.365 C 335.333 60.102,333.081 60.000,305.274 60.000 C 285.508 60.000,278.333 59.900,278.333 59.624 C 278.333 59.047,276.251 54.914,275.600 54.200 C 275.283 53.851,275.087 53.462,275.165 53.336 C 275.243 53.209,274.788 52.602,274.154 51.987 C 273.519 51.372,273.000 50.708,273.000 50.510 C 273.000 50.313,272.382 49.630,271.627 48.992 C 270.872 48.355,270.009 47.594,269.710 47.302 C 269.411 47.010,268.679 46.490,268.083 46.147 C 267.487 45.804,267.000 45.402,267.000 45.253 C 267.000 45.105,266.662 44.838,266.250 44.659 C 265.837 44.481,265.275 44.187,265.000 44.006 C 264.225 43.495,259.909 41.612,259.201 41.475 C 258.853 41.408,258.103 41.203,257.535 41.021 C 254.934 40.186,253.663 40.084,245.290 40.038 L 238.414 40.000 238.011 38.917 C 237.132 36.555,236.204 34.667,235.923 34.667 C 235.761 34.667,235.720 34.517,235.833 34.333 C 235.947 34.150,235.880 34.000,235.686 34.000 C 235.492 34.000,235.333 33.782,235.333 33.517 C 235.333 33.251,235.071 32.880,234.750 32.693 C 234.429 32.506,234.270 32.349,234.397 32.343 C 235.099 32.313,228.414 25.667,227.681 25.667 C 227.490 25.667,227.333 25.542,227.333 25.390 C 227.333 25.237,226.921 24.900,226.417 24.640 C 225.912 24.380,225.410 24.045,225.300 23.895 C 225.190 23.745,224.890 23.580,224.633 23.528 C 223.836 23.367,222.855 22.917,222.333 22.473 C 222.058 22.239,221.683 22.019,221.500 21.984 C 221.317 21.949,220.792 21.777,220.333 21.603 C 219.557 21.307,216.814 20.679,215.661 20.533 C 215.383 20.497,214.999 20.372,214.807 20.254 C 214.062 19.793,186.599 20.061,184.333 20.550 M212.500 40.412 C 215.206 41.069,219.000 44.409,219.000 46.133 C 219.000 46.405,219.152 46.722,219.339 46.837 C 219.525 46.952,219.591 47.186,219.486 47.356 C 219.380 47.527,219.419 47.667,219.571 47.667 C 219.724 47.667,219.894 48.672,219.949 49.901 C 220.004 51.130,220.188 52.396,220.358 52.713 C 220.528 53.030,220.667 53.589,220.667 53.954 C 220.667 54.320,220.892 54.844,221.167 55.119 C 221.442 55.394,221.667 55.693,221.667 55.784 C 221.667 56.011,223.788 58.148,224.024 58.158 C 224.129 58.163,224.466 58.418,224.774 58.726 C 225.798 59.751,228.659 60.009,240.167 60.115 C 252.044 60.225,252.879 60.298,254.357 61.350 C 254.859 61.707,255.417 62.000,255.596 62.000 C 255.776 62.000,256.172 62.380,256.476 62.844 C 256.783 63.312,257.194 63.586,257.399 63.459 C 257.624 63.321,257.676 63.382,257.532 63.615 C 257.401 63.827,257.425 64.000,257.585 64.000 C 259.290 64.000,260.285 71.167,258.957 73.879 C 257.327 77.205,255.802 78.537,252.365 79.638 C 250.748 80.156,147.074 79.986,146.738 79.465 C 146.607 79.262,145.927 78.910,145.227 78.681 C 144.526 78.453,143.873 78.057,143.775 77.802 C 143.677 77.546,143.490 77.403,143.359 77.484 C 143.228 77.565,142.907 77.321,142.644 76.941 C 142.381 76.562,141.979 76.056,141.750 75.816 C 141.521 75.577,141.333 75.211,141.333 75.004 C 141.333 74.797,141.164 74.732,140.957 74.860 C 140.728 75.001,140.641 74.911,140.736 74.630 C 140.822 74.375,140.706 73.717,140.477 73.167 C 139.974 71.956,140.043 68.106,140.585 67.127 C 140.800 66.739,140.882 66.326,140.766 66.210 C 140.650 66.095,140.720 66.000,140.922 66.000 C 141.124 66.000,141.394 65.668,141.523 65.262 C 142.815 61.189,147.008 60.055,160.915 60.015 C 171.493 59.984,173.501 59.871,173.863 59.285 C 173.964 59.122,174.186 59.075,174.356 59.181 C 174.527 59.286,174.667 59.205,174.667 59.000 C 174.667 58.795,174.795 58.706,174.951 58.803 C 175.280 59.006,178.333 56.180,178.333 55.672 C 178.333 55.486,178.492 55.333,178.686 55.333 C 178.880 55.333,178.947 55.183,178.833 55.000 C 178.720 54.817,178.795 54.667,179.000 54.667 C 179.205 54.667,179.286 54.527,179.181 54.356 C 179.075 54.186,179.133 53.957,179.309 53.849 C 179.632 53.649,179.930 52.070,180.161 49.333 C 180.231 48.508,180.317 47.796,180.352 47.750 C 180.388 47.704,180.435 47.529,180.458 47.361 C 180.481 47.193,180.612 46.943,180.750 46.806 C 180.887 46.668,181.000 46.304,181.000 45.995 C 181.000 45.687,181.316 45.075,181.702 44.634 C 182.088 44.194,182.652 43.533,182.957 43.167 C 183.851 42.089,186.451 40.419,187.082 40.517 C 187.402 40.567,187.746 40.475,187.846 40.312 C 188.030 40.015,211.249 40.109,212.500 40.412 M122.160 81.859 C 122.482 82.881,122.943 83.794,123.185 83.886 C 123.427 83.979,123.552 84.244,123.464 84.474 C 123.375 84.705,123.535 85.086,123.818 85.321 C 124.102 85.556,124.333 85.886,124.333 86.055 C 124.333 86.392,124.676 86.840,126.154 88.435 C 126.696 89.021,127.140 89.575,127.138 89.667 C 127.137 89.758,127.481 90.178,127.902 90.598 C 128.322 91.019,128.669 91.244,128.672 91.098 C 128.675 90.953,128.990 91.321,129.372 91.917 C 129.753 92.513,130.193 93.000,130.349 93.000 C 130.505 93.000,131.053 93.373,131.566 93.828 C 133.280 95.348,133.483 95.501,133.564 95.333 C 133.609 95.242,133.916 95.392,134.247 95.667 C 134.742 96.077,137.724 97.663,138.333 97.839 C 138.425 97.866,138.950 98.009,139.500 98.156 C 140.050 98.304,140.654 98.545,140.842 98.691 C 141.030 98.837,141.630 99.029,142.175 99.118 C 142.720 99.206,143.167 99.308,143.167 99.344 C 143.167 99.379,143.692 99.494,144.333 99.598 C 146.200 99.902,254.667 100.016,254.667 99.714 C 254.667 99.564,255.154 99.419,255.750 99.393 C 258.067 99.288,263.952 97.220,264.512 96.314 C 264.619 96.141,264.971 96.000,265.295 96.000 C 265.619 96.000,266.230 95.632,266.653 95.181 C 267.076 94.731,267.514 94.387,267.628 94.416 C 267.741 94.445,268.341 94.026,268.963 93.484 C 270.712 91.959,273.731 89.000,273.537 89.000 C 273.442 89.000,273.694 88.639,274.098 88.198 C 275.313 86.874,275.706 86.333,275.455 86.333 C 275.324 86.333,275.545 85.985,275.945 85.559 C 276.345 85.133,276.571 84.683,276.447 84.559 C 276.324 84.435,276.422 84.333,276.667 84.333 C 276.911 84.333,277.011 84.233,276.888 84.110 C 276.766 83.988,276.928 83.587,277.249 83.220 C 277.571 82.853,277.671 82.646,277.474 82.761 C 277.276 82.875,277.426 82.308,277.807 81.500 L 278.500 80.030 299.250 80.015 L 320.000 80.000 320.000 220.000 L 320.000 360.000 200.000 360.000 L 80.000 360.000 80.000 220.000 L 80.000 80.000 100.788 80.000 L 121.575 80.000 122.160 81.859 M263.396 130.656 C 261.871 130.996,259.805 131.663,258.803 132.138 C 257.801 132.612,256.854 133.000,256.698 133.000 C 256.542 133.000,256.230 133.223,256.003 133.496 C 255.776 133.769,255.464 133.914,255.308 133.818 C 255.152 133.721,254.719 133.948,254.345 134.321 C 253.972 134.695,253.614 134.962,253.549 134.917 C 252.907 134.463,244.683 142.800,244.671 143.917 C 244.669 144.146,244.508 144.333,244.314 144.333 C 244.120 144.333,244.045 144.471,244.149 144.638 C 244.253 144.806,244.224 144.993,244.085 145.055 C 243.947 145.116,243.407 146.067,242.886 147.167 C 242.365 148.267,241.797 149.437,241.623 149.767 C 241.449 150.096,241.161 151.071,240.982 151.933 C 240.803 152.795,240.547 153.875,240.412 154.333 C 239.932 155.964,240.218 176.018,240.834 183.937 C 241.200 188.638,241.680 194.147,241.856 195.667 C 241.930 196.308,242.072 197.883,242.171 199.167 C 242.269 200.450,242.420 201.725,242.504 202.000 C 242.658 202.500,242.828 203.975,243.188 207.935 C 243.293 209.091,243.445 210.366,243.526 210.769 C 243.607 211.171,243.753 212.175,243.852 213.000 C 243.950 213.825,244.100 214.875,244.185 215.333 C 244.270 215.792,244.420 216.917,244.518 217.833 C 244.617 218.750,244.776 219.725,244.872 220.000 C 244.969 220.275,245.113 221.025,245.192 221.667 C 245.271 222.308,245.508 223.658,245.718 224.667 C 246.120 226.596,246.341 228.110,246.362 229.083 C 246.369 229.404,246.524 229.667,246.707 229.667 C 246.890 229.667,246.949 229.813,246.838 229.992 C 246.727 230.171,246.787 230.884,246.970 231.576 C 247.154 232.267,247.394 233.358,247.504 234.000 C 247.613 234.642,247.849 235.767,248.027 236.500 C 248.205 237.233,248.404 238.283,248.470 238.833 C 248.536 239.383,248.903 240.783,249.286 241.944 C 249.669 243.105,249.959 244.155,249.932 244.277 C 249.862 244.590,250.607 247.256,251.181 248.751 C 251.446 249.439,251.677 250.114,251.695 250.251 C 251.713 250.388,251.945 251.020,252.210 251.655 C 252.476 252.291,252.732 253.041,252.779 253.322 C 252.827 253.603,253.051 254.171,253.278 254.583 C 253.505 254.996,253.572 255.336,253.428 255.338 C 253.284 255.341,253.360 255.466,253.595 255.615 C 253.831 255.765,254.102 256.325,254.198 256.860 C 254.294 257.395,254.515 257.884,254.688 257.945 C 254.862 258.007,254.919 258.194,254.816 258.362 C 254.712 258.529,254.811 258.667,255.036 258.667 C 255.261 258.667,255.349 258.762,255.232 258.879 C 255.115 258.996,255.315 259.507,255.677 260.014 C 256.038 260.521,256.333 261.101,256.333 261.301 C 256.333 261.502,256.483 261.667,256.667 261.667 C 256.850 261.667,257.001 261.854,257.003 262.083 C 257.004 262.313,257.539 263.063,258.191 263.750 C 258.842 264.438,259.296 265.000,259.200 265.000 C 259.103 265.000,259.356 265.350,259.762 265.778 C 260.168 266.206,260.594 266.543,260.710 266.528 C 260.825 266.513,261.284 266.889,261.729 267.365 C 262.174 267.840,263.280 268.491,264.186 268.811 C 265.092 269.131,266.077 269.519,266.376 269.673 C 267.294 270.149,273.169 269.960,274.394 269.415 C 277.876 267.867,278.299 267.598,280.115 265.782 C 281.605 264.292,282.333 263.378,282.333 262.996 C 282.333 262.815,282.466 262.667,282.628 262.667 C 282.790 262.667,283.005 262.404,283.107 262.083 C 283.332 261.374,284.346 259.687,284.920 259.067 C 285.151 258.817,285.254 258.475,285.150 258.306 C 285.046 258.138,285.145 258.000,285.369 258.000 C 285.594 258.000,285.692 257.914,285.587 257.809 C 285.482 257.705,285.826 256.673,286.350 255.516 C 286.874 254.360,287.478 252.721,287.691 251.874 C 287.905 251.026,288.220 250.333,288.393 250.333 C 288.565 250.333,288.609 250.177,288.491 249.985 C 288.373 249.794,288.430 249.452,288.618 249.225 C 288.806 248.998,289.034 248.442,289.124 247.990 C 289.605 245.571,289.779 244.970,290.048 244.803 C 290.211 244.703,290.264 244.491,290.166 244.332 C 290.068 244.174,290.211 243.472,290.483 242.772 C 290.756 242.072,291.046 241.050,291.129 240.500 C 291.211 239.950,291.309 239.425,291.345 239.333 C 291.382 239.242,291.396 239.059,291.377 238.928 C 291.357 238.797,291.476 238.335,291.641 237.901 C 291.806 237.466,292.025 236.599,292.127 235.972 C 292.229 235.346,292.477 234.083,292.678 233.167 C 292.879 232.250,293.072 231.200,293.107 230.833 C 293.142 230.467,293.269 230.015,293.390 229.829 C 293.510 229.643,293.704 228.604,293.821 227.519 C 293.938 226.435,294.089 225.459,294.156 225.350 C 294.354 225.029,294.765 222.256,294.788 221.083 C 294.800 220.487,294.895 220.000,295.000 220.000 C 295.105 220.000,295.204 219.737,295.220 219.417 C 295.236 219.096,295.343 218.308,295.458 217.667 C 295.718 216.206,295.993 214.231,296.177 212.500 C 296.256 211.767,296.418 210.567,296.539 209.833 C 296.660 209.100,296.800 207.975,296.851 207.333 C 296.901 206.692,297.019 205.642,297.112 205.000 C 297.274 203.884,297.611 201.091,297.852 198.875 C 297.992 197.582,298.330 193.721,298.497 191.500 C 298.565 190.583,298.717 188.858,298.833 187.667 C 298.950 186.475,299.092 184.600,299.150 183.500 C 299.208 182.400,299.378 179.700,299.528 177.500 C 300.138 168.561,299.898 154.716,299.101 152.756 C 298.860 152.163,298.681 151.563,298.704 151.423 C 298.727 151.282,298.709 151.054,298.664 150.917 C 298.620 150.779,298.559 150.554,298.530 150.417 C 298.500 150.279,298.289 149.829,298.060 149.417 C 297.831 149.004,297.709 148.667,297.789 148.667 C 298.246 148.667,294.805 142.682,294.091 142.233 C 293.858 142.087,293.667 141.841,293.667 141.687 C 293.667 141.330,288.771 136.340,288.594 136.517 C 288.522 136.589,287.974 136.203,287.377 135.658 C 286.780 135.113,286.164 134.667,286.007 134.667 C 285.850 134.667,285.672 134.551,285.611 134.411 C 285.462 134.066,280.790 131.833,279.417 131.450 C 279.188 131.386,278.813 131.281,278.583 131.217 C 278.354 131.153,277.942 131.007,277.667 130.893 C 275.431 129.966,267.101 129.827,263.396 130.656 M106.388 140.682 C 105.779 141.053,105.375 141.203,105.491 141.015 C 105.615 140.814,105.490 140.755,105.184 140.873 C 104.899 140.982,104.667 141.205,104.667 141.369 C 104.667 141.533,104.519 141.667,104.339 141.667 C 103.888 141.667,101.667 143.860,101.667 144.306 C 101.667 144.504,101.533 144.667,101.369 144.667 C 101.205 144.667,100.982 144.899,100.873 145.184 C 100.739 145.533,100.808 145.623,101.087 145.460 C 101.314 145.327,101.205 145.555,100.845 145.965 C 99.720 147.246,100.106 154.869,101.316 155.272 C 101.509 155.336,101.667 155.515,101.667 155.669 C 101.667 155.977,103.719 158.144,104.024 158.158 C 104.129 158.163,104.466 158.418,104.774 158.726 C 105.081 159.034,106.121 159.455,107.083 159.662 C 109.719 160.228,213.038 159.994,213.729 159.420 C 214.004 159.192,214.327 159.104,214.447 159.225 C 214.568 159.346,214.667 159.261,214.667 159.036 C 214.667 158.811,214.795 158.706,214.951 158.803 C 215.280 159.006,218.333 156.180,218.333 155.672 C 218.333 155.486,218.492 155.333,218.686 155.333 C 218.880 155.333,218.947 155.183,218.833 155.000 C 218.720 154.817,218.811 154.667,219.036 154.667 C 219.261 154.667,219.346 154.568,219.225 154.447 C 219.104 154.327,219.177 154.021,219.387 153.769 C 220.555 152.361,219.810 145.172,218.411 144.357 C 218.093 144.172,217.983 144.015,218.167 144.009 C 218.922 143.982,215.106 140.985,213.712 140.510 C 211.017 139.592,107.909 139.757,106.388 140.682 M272.333 150.456 C 275.227 150.886,278.559 153.902,279.159 156.633 C 279.284 157.202,279.498 157.667,279.634 157.667 C 279.923 157.667,279.830 170.152,279.501 175.500 C 279.377 177.517,279.212 180.217,279.136 181.500 C 279.059 182.783,278.911 184.883,278.807 186.167 C 278.703 187.450,278.568 189.325,278.507 190.333 C 278.446 191.342,278.320 192.392,278.226 192.667 C 278.132 192.942,278.058 193.392,278.061 193.667 C 278.070 194.609,277.652 198.691,277.173 202.333 C 277.041 203.342,276.880 204.692,276.817 205.333 C 276.753 205.975,276.611 207.100,276.500 207.833 C 276.227 209.657,276.052 211.018,275.666 214.323 C 275.485 215.875,275.196 217.600,275.024 218.156 C 274.852 218.712,274.643 219.767,274.560 220.500 C 274.478 221.233,274.328 222.058,274.227 222.333 C 274.127 222.608,273.970 223.508,273.878 224.333 C 273.787 225.158,273.484 226.701,273.205 227.762 C 272.925 228.823,272.775 229.895,272.871 230.145 C 272.967 230.395,272.885 230.698,272.689 230.819 C 272.494 230.940,272.330 231.443,272.325 231.936 C 272.321 232.430,272.005 233.958,271.623 235.333 C 271.240 236.708,270.935 238.096,270.943 238.417 C 270.952 238.737,270.837 239.000,270.688 239.000 C 270.539 239.000,270.322 239.474,270.206 240.053 C 269.961 241.278,269.798 241.223,269.554 239.833 C 269.457 239.283,268.979 237.333,268.490 235.500 C 268.002 233.667,267.544 231.717,267.473 231.167 C 267.403 230.617,267.238 229.792,267.107 229.333 C 266.976 228.875,266.851 228.350,266.829 228.167 C 266.807 227.983,266.689 227.383,266.567 226.833 C 266.445 226.283,266.254 225.308,266.143 224.667 C 266.033 224.025,265.887 223.200,265.821 222.833 C 265.754 222.467,265.472 220.742,265.193 219.000 C 264.914 217.258,264.608 215.512,264.513 215.120 C 264.417 214.728,264.258 213.603,264.158 212.620 C 263.909 210.158,263.829 209.718,263.588 209.477 C 263.473 209.362,263.448 209.090,263.532 208.871 C 263.615 208.653,263.520 207.430,263.319 206.154 C 262.817 202.963,262.696 202.068,262.532 200.333 C 262.229 197.128,261.968 194.798,261.824 194.000 C 261.662 193.107,261.239 187.496,261.271 186.667 C 261.281 186.392,261.148 184.817,260.976 183.167 C 260.333 177.033,259.905 158.098,260.402 157.791 C 260.554 157.697,260.598 157.491,260.500 157.333 C 260.402 157.175,260.475 156.952,260.661 156.837 C 260.848 156.722,261.000 156.359,261.000 156.031 C 261.000 155.704,261.313 155.075,261.696 154.634 C 262.079 154.194,262.491 153.671,262.613 153.473 C 263.048 152.763,266.379 150.500,266.989 150.500 C 267.331 150.500,267.709 150.402,267.829 150.282 C 268.032 150.079,270.415 150.171,272.333 150.456 M106.388 180.682 C 105.779 181.053,105.375 181.203,105.491 181.015 C 105.615 180.814,105.490 180.755,105.184 180.873 C 104.899 180.982,104.667 181.205,104.667 181.369 C 104.667 181.533,104.519 181.667,104.339 181.667 C 103.888 181.667,101.667 183.860,101.667 184.306 C 101.667 184.504,101.533 184.667,101.369 184.667 C 101.205 184.667,100.982 184.899,100.873 185.184 C 100.739 185.533,100.808 185.623,101.087 185.460 C 101.314 185.327,101.205 185.555,100.845 185.965 C 99.720 187.246,100.106 194.869,101.316 195.272 C 101.509 195.336,101.667 195.515,101.667 195.669 C 101.667 195.977,103.719 198.144,104.024 198.158 C 104.129 198.163,104.466 198.418,104.774 198.726 C 105.081 199.034,106.121 199.455,107.083 199.662 C 109.719 200.228,213.038 199.994,213.729 199.420 C 214.004 199.192,214.327 199.104,214.447 199.225 C 214.568 199.346,214.667 199.261,214.667 199.036 C 214.667 198.811,214.795 198.706,214.951 198.803 C 215.280 199.006,218.333 196.180,218.333 195.672 C 218.333 195.486,218.492 195.333,218.686 195.333 C 218.880 195.333,218.947 195.183,218.833 195.000 C 218.720 194.817,218.811 194.667,219.036 194.667 C 219.261 194.667,219.346 194.568,219.225 194.447 C 219.104 194.327,219.177 194.021,219.387 193.769 C 220.555 192.361,219.810 185.172,218.411 184.357 C 218.093 184.172,217.983 184.015,218.167 184.009 C 218.922 183.982,215.106 180.985,213.712 180.510 C 211.017 179.592,107.909 179.757,106.388 180.682 M106.388 220.682 C 105.779 221.053,105.375 221.203,105.491 221.015 C 105.615 220.814,105.490 220.755,105.184 220.873 C 104.899 220.982,104.667 221.205,104.667 221.369 C 104.667 221.533,104.519 221.667,104.339 221.667 C 103.888 221.667,101.667 223.860,101.667 224.306 C 101.667 224.504,101.533 224.667,101.369 224.667 C 101.205 224.667,100.982 224.899,100.873 225.184 C 100.739 225.533,100.808 225.623,101.087 225.460 C 101.314 225.327,101.205 225.555,100.845 225.965 C 99.720 227.246,100.106 234.869,101.316 235.272 C 101.509 235.336,101.667 235.515,101.667 235.669 C 101.667 235.977,103.719 238.144,104.024 238.158 C 104.129 238.163,104.466 238.418,104.774 238.726 C 105.081 239.034,106.121 239.455,107.083 239.662 C 109.719 240.228,213.038 239.994,213.729 239.420 C 214.004 239.192,214.327 239.104,214.447 239.225 C 214.568 239.346,214.667 239.261,214.667 239.036 C 214.667 238.811,214.795 238.706,214.951 238.803 C 215.280 239.006,218.333 236.180,218.333 235.672 C 218.333 235.486,218.492 235.333,218.686 235.333 C 218.880 235.333,218.947 235.183,218.833 235.000 C 218.720 234.817,218.811 234.667,219.036 234.667 C 219.261 234.667,219.346 234.568,219.225 234.447 C 219.104 234.327,219.177 234.021,219.387 233.769 C 220.555 232.361,219.810 225.172,218.411 224.357 C 218.093 224.172,217.983 224.015,218.167 224.009 C 218.922 223.982,215.106 220.985,213.712 220.510 C 211.017 219.592,107.909 219.757,106.388 220.682 M106.388 260.682 C 105.779 261.053,105.375 261.203,105.491 261.015 C 105.615 260.814,105.490 260.755,105.184 260.873 C 104.899 260.982,104.667 261.205,104.667 261.369 C 104.667 261.533,104.519 261.667,104.339 261.667 C 103.888 261.667,101.667 263.860,101.667 264.306 C 101.667 264.504,101.533 264.667,101.369 264.667 C 101.205 264.667,100.982 264.899,100.873 265.184 C 100.739 265.533,100.808 265.623,101.087 265.460 C 101.314 265.327,101.205 265.555,100.845 265.965 C 99.720 267.246,100.106 274.869,101.316 275.272 C 101.509 275.336,101.667 275.515,101.667 275.669 C 101.667 275.977,103.719 278.144,104.024 278.158 C 104.129 278.163,104.466 278.418,104.774 278.726 C 105.081 279.034,106.121 279.455,107.083 279.662 C 109.719 280.228,213.038 279.994,213.729 279.420 C 214.004 279.192,214.327 279.104,214.447 279.225 C 214.568 279.346,214.667 279.261,214.667 279.036 C 214.667 278.811,214.795 278.706,214.951 278.803 C 215.280 279.006,218.333 276.180,218.333 275.672 C 218.333 275.486,218.492 275.333,218.686 275.333 C 218.880 275.333,218.947 275.183,218.833 275.000 C 218.720 274.817,218.811 274.667,219.036 274.667 C 219.261 274.667,219.346 274.568,219.225 274.447 C 219.104 274.327,219.177 274.021,219.387 273.769 C 220.555 272.361,219.810 265.172,218.411 264.357 C 218.093 264.172,217.983 264.015,218.167 264.009 C 218.922 263.982,215.106 260.985,213.712 260.510 C 211.017 259.592,107.909 259.757,106.388 260.682 M264.667 290.634 C 261.785 291.433,259.121 292.758,257.547 294.175 C 256.839 294.812,256.154 295.333,256.025 295.333 C 255.716 295.333,252.647 299.403,252.631 299.833 C 252.625 300.017,252.418 300.392,252.172 300.667 C 249.646 303.488,249.422 313.880,251.787 318.500 C 252.163 319.233,252.477 319.946,252.485 320.084 C 252.493 320.222,253.137 321.075,253.917 321.979 C 254.696 322.884,255.333 323.778,255.333 323.967 C 255.333 324.155,255.671 324.487,256.083 324.704 C 256.496 324.920,257.526 325.673,258.372 326.376 C 262.599 329.888,271.118 330.976,277.270 328.791 C 278.221 328.453,279.000 328.062,279.000 327.922 C 279.000 327.781,279.241 327.667,279.535 327.667 C 280.043 327.667,281.273 326.816,282.905 325.336 C 283.311 324.968,283.773 324.667,283.933 324.667 C 284.092 324.667,284.807 323.817,285.522 322.779 C 286.237 321.741,287.023 320.691,287.268 320.446 C 287.514 320.201,287.605 320.000,287.472 320.000 C 287.339 320.000,287.502 319.700,287.833 319.333 C 288.165 318.967,288.335 318.667,288.211 318.667 C 288.086 318.667,288.230 318.292,288.531 317.833 C 288.831 317.375,288.966 317.000,288.831 317.000 C 288.696 317.000,288.739 316.813,288.927 316.583 C 290.372 314.826,290.008 304.374,288.415 301.873 C 288.284 301.668,288.154 301.425,288.127 301.333 C 287.778 300.168,287.553 299.665,287.378 299.659 C 287.262 299.655,286.717 298.981,286.167 298.160 C 285.617 297.339,285.054 296.668,284.917 296.667 C 284.779 296.667,284.667 296.437,284.667 296.156 C 284.667 295.875,284.404 295.549,284.083 295.431 C 283.762 295.313,283.170 294.868,282.766 294.442 C 282.362 294.015,281.922 293.667,281.787 293.667 C 281.653 293.667,281.233 293.378,280.855 293.025 C 280.476 292.672,279.942 292.335,279.667 292.275 C 279.392 292.215,279.092 292.083,279.000 291.980 C 277.601 290.414,268.531 289.562,264.667 290.634 M106.388 300.682 C 105.779 301.053,105.375 301.203,105.491 301.015 C 105.615 300.814,105.490 300.755,105.184 300.873 C 104.899 300.982,104.667 301.205,104.667 301.369 C 104.667 301.533,104.519 301.667,104.339 301.667 C 103.888 301.667,101.667 303.860,101.667 304.306 C 101.667 304.504,101.533 304.667,101.369 304.667 C 101.205 304.667,100.982 304.899,100.873 305.184 C 100.739 305.533,100.808 305.623,101.087 305.460 C 101.314 305.327,101.205 305.555,100.845 305.965 C 99.720 307.246,100.106 314.869,101.316 315.272 C 101.509 315.336,101.667 315.515,101.667 315.669 C 101.667 315.977,103.719 318.144,104.024 318.158 C 104.129 318.163,104.466 318.418,104.774 318.726 C 105.081 319.034,106.121 319.455,107.083 319.662 C 109.719 320.228,213.038 319.994,213.729 319.420 C 214.004 319.192,214.327 319.104,214.447 319.225 C 214.568 319.346,214.667 319.261,214.667 319.036 C 214.667 318.811,214.795 318.706,214.951 318.803 C 215.280 319.006,218.333 316.180,218.333 315.672 C 218.333 315.486,218.492 315.333,218.686 315.333 C 218.880 315.333,218.947 315.183,218.833 315.000 C 218.720 314.817,218.811 314.667,219.036 314.667 C 219.261 314.667,219.346 314.568,219.225 314.447 C 219.104 314.327,219.177 314.021,219.387 313.769 C 220.555 312.361,219.810 305.172,218.411 304.357 C 218.093 304.172,217.983 304.015,218.167 304.009 C 218.922 303.982,215.106 300.985,213.712 300.510 C 211.017 299.592,107.909 299.757,106.388 300.682 " stroke="none" fill='#01bf71' fill-rule="evenodd"></path><path id="path1" d="M299.077 183.000 C 299.077 183.642,299.146 183.904,299.230 183.583 C 299.314 183.262,299.314 182.737,299.230 182.417 C 299.146 182.096,299.077 182.358,299.077 183.000 " stroke="none" fill="#3cb4dc" fill-rule="evenodd"></path><path id="path2" d="" stroke="none" fill='#01bf71' fill-rule="evenodd"></path><path id="path3" d="" stroke="none" fill='#01bf71' fill-rule="evenodd"></path><path id="path4" d="" stroke="none" fill='#01bf71' fill-rule="evenodd"></path></g></svg>